<svg width="600" height="400" viewBox="0 0 600 400" fill="none" xmlns="http://www.w3.org/2000/svg">
  <defs>
    <linearGradient id="plateGradient" x1="0%" y1="0%" x2="100%" y2="100%">
      <stop offset="0%" style="stop-color:#FFFFFF"/>
      <stop offset="100%" style="stop-color:#F5F5F5"/>
    </linearGradient>
    <linearGradient id="tiramisuGradient" x1="0%" y1="0%" x2="100%" y2="100%">
      <stop offset="0%" style="stop-color:#D7CCC8"/>
      <stop offset="100%" style="stop-color:#A1887F"/>
    </linearGradient>
    <linearGradient id="chocolateGradient" x1="0%" y1="0%" x2="100%" y2="100%">
      <stop offset="0%" style="stop-color:#6D4C41"/>
      <stop offset="100%" style="stop-color:#4E342E"/>
    </linearGradient>
    <linearGradient id="creamGradient" x1="0%" y1="0%" x2="100%" y2="100%">
      <stop offset="0%" style="stop-color:#FFF8E1"/>
      <stop offset="100%" style="stop-color:#FFECB3"/>
    </linearGradient>
  </defs>
  
  <!-- Background -->
  <rect width="600" height="400" fill="#FFF8E1"/>
  
  <!-- Main plate -->
  <circle cx="300" cy="200" r="120" fill="url(#plateGradient)" stroke="#8D6E63" stroke-width="3"/>
  <circle cx="300" cy="200" r="110" fill="none" stroke="#A1887F" stroke-width="1" opacity="0.3"/>
  
  <!-- Tiramisu -->
  <rect x="220" y="150" width="60" height="40" fill="url(#tiramisuGradient)" rx="5"/>
  <rect x="225" y="155" width="50" height="8" fill="#8D6E63" rx="2"/>
  <rect x="225" y="168" width="50" height="8" fill="#6D4C41" rx="2"/>
  <rect x="225" y="181" width="50" height="8" fill="#8D6E63" rx="2"/>
  <circle cx="245" cy="165" r="3" fill="#4CAF50"/>
  <circle cx="260" cy="165" r="3" fill="#4CAF50"/>
  
  <!-- Chocolate Lava Cake -->
  <ellipse cx="350" cy="180" rx="25" ry="20" fill="url(#chocolateGradient)"/>
  <ellipse cx="350" cy="180" rx="20" ry="15" fill="#4E342E"/>
  <ellipse cx="350" cy="180" rx="15" ry="10" fill="#8D6E63"/>
  <circle cx="345" cy="175" r="2" fill="#FFECB3"/>
  <circle cx="355" cy="175" r="2" fill="#FFECB3"/>
  
  <!-- Cheesecake -->
  <ellipse cx="280" cy="250" rx="30" ry="20" fill="url(#creamGradient)"/>
  <ellipse cx="280" cy="250" rx="25" ry="15" fill="#FFECB3"/>
  <ellipse cx="280" cy="250" rx="20" ry="10" fill="#FFF8E1"/>
  <circle cx="275" cy="245" r="4" fill="#FF8A80"/>
  <circle cx="285" cy="245" r="3" fill="#FFAB91"/>
  <circle cx="275" cy="255" r="3" fill="#FFAB91"/>
  <circle cx="285" cy="255" r="4" fill="#FF8A80"/>
  
  <!-- Ice Cream -->
  <ellipse cx="380" cy="250" rx="20" ry="25" fill="#FFECB3"/>
  <ellipse cx="380" cy="250" rx="15" ry="20" fill="#FFCC80"/>
  <ellipse cx="380" cy="250" rx="10" ry="15" fill="#FFAB91"/>
  <rect x="375" y="275" width="10" height="15" fill="#8D6E63" rx="5"/>
  
  <!-- Garnish -->
  <path d="M 200 200 Q 220 180 240 200" stroke="#4CAF50" stroke-width="2" fill="none"/>
  <path d="M 400 210 Q 420 190 440 210" stroke="#66BB6A" stroke-width="2" fill="none"/>
  
  <!-- Decorative elements -->
  <circle cx="150" cy="100" r="25" fill="#8D6E63" opacity="0.2"/>
  <circle cx="450" cy="120" r="20" fill="#A1887F" opacity="0.2"/>
  <circle cx="120" cy="300" r="15" fill="#6D4C41" opacity="0.2"/>
  <circle cx="480" cy="320" r="18" fill="#8D6E63" opacity="0.2"/>
  
  <!-- Floating sprinkles -->
  <circle cx="200" cy="100" r="2" fill="#8D6E63" opacity="0.6"/>
  <circle cx="400" cy="80" r="3" fill="#A1887F" opacity="0.6"/>
  <circle cx="500" cy="150" r="2" fill="#6D4C41" opacity="0.6"/>
  <circle cx="100" cy="250" r="3" fill="#8D6E63" opacity="0.6"/>
  <circle cx="220" cy="120" r="2" fill="#4CAF50" opacity="0.6"/>
  <circle cx="480" cy="180" r="2" fill="#66BB6A" opacity="0.6"/>
  
  <!-- Small decorative circles -->
  <circle cx="180" cy="150" r="3" fill="#8D6E63" opacity="0.4"/>
  <circle cx="420" cy="130" r="4" fill="#A1887F" opacity="0.4"/>
  <circle cx="140" cy="280" r="3" fill="#6D4C41" opacity="0.4"/>
  <circle cx="460" cy="300" r="4" fill="#8D6E63" opacity="0.4"/>
</svg> 